<?xml version="1.0" encoding="UTF-8"?>
<svg xmlns="http://www.w3.org/2000/svg" xmlns:xlink="http://www.w3.org/1999/xlink" width="300px" height="300px" viewBox="0 0 300 300" version="1.1">
<g id="surface1">
<path style=" stroke:none;fill-rule:nonzero;fill:rgb(33.72549%,23.921569%,48.627451%);fill-opacity:1;" d="M 0 261.316406 C 0 282.683594 17.320312 300 38.683594 300 L 261.316406 300 C 282.683594 300 300 282.679688 300 261.316406 L 300 38.683594 C 300 17.316406 282.679688 0 261.316406 0 L 38.683594 0 C 17.316406 0 0 17.320312 0 38.683594 Z M 0 261.316406 "/>
<path style=" stroke:none;fill-rule:nonzero;fill:rgb(100%,100%,100%);fill-opacity:1;" d="M 124.402344 132.699219 L 124.402344 90.21875 L 161.800781 90.21875 C 165.363281 90.21875 168.796875 90.511719 172.101562 91.109375 C 175.410156 91.699219 178.335938 92.757812 180.878906 94.285156 C 183.421875 95.8125 185.457031 97.933594 186.984375 100.644531 C 188.511719 103.359375 189.277344 106.835938 189.277344 111.078125 C 189.277344 118.707031 186.984375 124.222656 182.40625 127.613281 C 177.828125 131.003906 171.976562 132.699219 164.851562 132.699219 Z M 84.460938 59.179688 L 84.460938 240.820312 L 172.484375 240.820312 C 180.625 240.820312 188.554688 239.804688 196.269531 237.765625 C 203.988281 235.730469 210.855469 232.59375 216.878906 228.355469 C 222.898438 224.117188 227.6875 218.644531 231.25 211.945312 C 234.8125 205.246094 236.59375 197.316406 236.59375 188.160156 C 236.59375 176.796875 233.835938 167.085938 228.324219 159.03125 C 222.8125 150.976562 214.460938 145.335938 203.265625 142.113281 C 211.40625 138.214844 217.554688 133.210938 221.710938 127.105469 C 225.867188 121 227.945312 113.367188 227.945312 104.207031 C 227.945312 95.726562 226.542969 88.605469 223.746094 82.839844 C 220.949219 77.074219 217.003906 72.449219 211.917969 68.972656 C 206.828125 65.496094 200.722656 62.996094 193.601562 61.46875 C 186.476562 59.941406 178.589844 59.179688 169.941406 59.179688 Z M 124.402344 209.78125 L 124.402344 159.921875 L 167.90625 159.921875 C 176.554688 159.921875 183.507812 161.914062 188.765625 165.898438 C 194.023438 169.886719 196.652344 176.542969 196.652344 185.871094 C 196.652344 190.621094 195.847656 194.519531 194.234375 197.570312 C 192.625 200.625 190.460938 203.042969 187.75 204.824219 C 185.035156 206.605469 181.898438 207.875 178.335938 208.640625 C 174.773438 209.402344 171.042969 209.78125 167.140625 209.78125 Z M 124.402344 209.78125 "/>
</g>
</svg>
